# xmcd
#
# Track frame offsets:
#	150
#	13315
#	25857
#	39247
#	50767
#	62662
#	76742
#	90292
#	100457
#	111655
#	125390
#	137455
#	139257
#	150257
#	160572
#	172750
#	184780
#	195902
#	208685
#	221030
#	232250
#	243795
#	256927
#	268445
#	278640
#	287385
#
# Disc length: 4017 seconds
#
# Revision: 4
# Processed by: cddbd v1.5.2PL0 Copyright (c) Steve Scherf et al.
# Submitted via: audiograbber 1.83.01
#
DISCID=640faf1a
DTITLE=Various Artist - Blues From Dolphin's Of Hollywood
DYEAR=1991
DGENRE=Blues
TTITLE0=Pee Wee Crayton - The Darkest Hour
TTITLE1=Pee Wee Crayton - Forgive Me
TTITLE2=Pee Wee Crayton - Crying And Walking
TTITLE3=Pee Wee Crayton - Pappy's Blues
TTITLE4=Pee Wee Crayton - Baby, Pat The Floor
TTITLE5=Pee Wee Crayton - I'm Your Prisoner
TTITLE6=Pee Wee Crayton - Lovin' John
TTITLE7=Pee Wee Crayton - Fillmore Street Blues
TTITLE8=Pee Wee Crayton - Boogie Bop
TTITLE9=Little Caesar - You Can't Bring Me Down
TTITLE10=Little Caesar - Cadillac Baby
TTITLE11=Percy Mayfield - WDIA Station ID
TTITLE12=Percy Mayfield - Look The Whole World Over
TTITLE13=Percy Mayfield - The Monkey Song
TTITLE14=Memphis Slim - Treat Me Like I Treat You
TTITLE15=Memphis Slim - My Country Girl
TTITLE16=Memphis Slim - Worried Life Blues
TTITLE17=Memphis Slim - Pete's Boogie
TTITLE18=Jimmy Witherspoon - Big Family Blues
TTITLE19=Jimmy Witherspoon - Cain River Blues
TTITLE20=Jimmy Witherspoon - Teenage Party
TTITLE21=Jimmy Witherspoon - S.K. Blues
TTITLE22=Floyd Dixon - Never Know When A Woman Changes Her Mind
TTITLE23=Floyd Dixon - Oh Baby
TTITLE24=Peppermint Harris - Cadillac Funeral
TTITLE25=Peppermint Harris - Treat Me Like I Treat You
EXTD=From recordings 1953-55 on Specialty Records
EXTT0=
EXTT1=
EXTT2=
EXTT3=
EXTT4=
EXTT5=
EXTT6=
EXTT7=
EXTT8=
EXTT9=
EXTT10=
EXTT11=
EXTT12=
EXTT13=
EXTT14=
EXTT15=
EXTT16=
EXTT17=
EXTT18=
EXTT19=
EXTT20=
EXTT21=
EXTT22=
EXTT23=
EXTT24=
EXTT25=
PLAYORDER=
